<svg xmlns="http://www.w3.org/2000/svg" width="66" height="10" viewBox="0 0 66 10">
  <defs>
    <style>
      .cls-1 {
        fill: #fff;
        fill-rule: evenodd;
      }
    </style>
  </defs>
  <path id="Forma_3_copiar_4" data-name="Forma 3 copiar 4" class="cls-1" d="M8.293,1.293L9.707,2.707l-7,7L1.293,8.293Zm8,0,1.414,1.414-7,7L9.293,8.293Zm8,0,1.414,1.414-7,7L17.293,8.293Zm8,0,1.414,1.414-7,7L25.293,8.293Zm8,0,1.414,1.414-7,7L33.293,8.293Zm8,0,1.414,1.414-7,7L41.293,8.293Zm8,0,1.414,1.414-7,7L49.293,8.293Zm8,0,1.414,1.414-7,7L57.293,8.293Z"/>
</svg>
